<mxfile host="65bd71144e">
    <diagram id="BC2V4QTmiuFFL8je2IGP" name="ページ1">
        <mxGraphModel dx="782" dy="1422" grid="0" gridSize="10" guides="1" tooltips="1" connect="1" arrows="1" fold="1" page="0" pageScale="1" pageWidth="827" pageHeight="1169" math="0" shadow="0">
            <root>
                <mxCell id="0"/>
                <mxCell id="1" parent="0"/>
                <mxCell id="38" value="" style="ellipse;whiteSpace=wrap;html=1;aspect=fixed;fillColor=#647687;fontColor=#ffffff;strokeColor=#314354;" vertex="1" parent="1">
                    <mxGeometry x="105" y="-351" width="1392" height="1392" as="geometry"/>
                </mxCell>
                <mxCell id="37" value="" style="ellipse;whiteSpace=wrap;html=1;aspect=fixed;fillColor=#76608a;fontColor=#ffffff;strokeColor=#432D57;" vertex="1" parent="1">
                    <mxGeometry x="466" y="-53" width="745" height="745" as="geometry"/>
                </mxCell>
                <mxCell id="36" value="" style="ellipse;whiteSpace=wrap;html=1;aspect=fixed;fillColor=#a0522d;strokeColor=#6D1F00;fontColor=#ffffff;" vertex="1" parent="1">
                    <mxGeometry x="786" y="114" width="420" height="420" as="geometry"/>
                </mxCell>
                <mxCell id="11" value="infrastructure (dataaccess)" style="rounded=0;whiteSpace=wrap;html=1;fillColor=none;verticalAlign=top;fontSize=18;" parent="1" vertex="1">
                    <mxGeometry x="1214" y="143" width="320" height="380" as="geometry"/>
                </mxCell>
                <mxCell id="2" value="domain" style="rounded=0;whiteSpace=wrap;html=1;fillColor=none;verticalAlign=top;fontSize=18;movable=0;resizable=0;rotatable=0;deletable=0;editable=0;connectable=0;" parent="1" vertex="1">
                    <mxGeometry x="861" y="140" width="320" height="380" as="geometry"/>
                </mxCell>
                <mxCell id="3" value="presentation" style="rounded=0;whiteSpace=wrap;html=1;fillColor=none;verticalAlign=top;fontSize=18;" parent="1" vertex="1">
                    <mxGeometry x="150" y="140" width="320" height="380" as="geometry"/>
                </mxCell>
                <mxCell id="4" value="Request" style="rounded=0;whiteSpace=wrap;html=1;fillColor=default;fontSize=18;" parent="1" vertex="1">
                    <mxGeometry x="180" y="220" width="120" height="60" as="geometry"/>
                </mxCell>
                <mxCell id="5" value="Router" style="rounded=0;whiteSpace=wrap;html=1;fillColor=default;fontSize=18;" parent="1" vertex="1">
                    <mxGeometry x="300" y="300" width="120" height="60" as="geometry"/>
                </mxCell>
                <mxCell id="6" value="Response" style="rounded=0;whiteSpace=wrap;html=1;fillColor=default;fontSize=18;" parent="1" vertex="1">
                    <mxGeometry x="190" y="400" width="120" height="60" as="geometry"/>
                </mxCell>
                <mxCell id="7" value="application" style="rounded=0;whiteSpace=wrap;html=1;fillColor=none;verticalAlign=top;fontSize=18;" parent="1" vertex="1">
                    <mxGeometry x="507" y="140" width="320" height="380" as="geometry"/>
                </mxCell>
                <mxCell id="9" value="Service" style="rounded=0;whiteSpace=wrap;html=1;fillColor=default;fontSize=18;" parent="1" vertex="1">
                    <mxGeometry x="630" y="300" width="120" height="60" as="geometry"/>
                </mxCell>
                <mxCell id="10" value="Output" style="rounded=0;whiteSpace=wrap;html=1;fillColor=default;fontSize=18;" parent="1" vertex="1">
                    <mxGeometry x="570" y="390" width="120" height="60" as="geometry"/>
                </mxCell>
                <mxCell id="34" style="edgeStyle=none;html=1;exitX=0;exitY=0.5;exitDx=0;exitDy=0;dashed=1;" parent="1" source="13" target="30" edge="1">
                    <mxGeometry relative="1" as="geometry"/>
                </mxCell>
                <mxCell id="35" style="edgeStyle=none;html=1;exitX=0;exitY=0;exitDx=0;exitDy=0;entryX=1;entryY=1;entryDx=0;entryDy=0;" parent="1" source="13" target="24" edge="1">
                    <mxGeometry relative="1" as="geometry"/>
                </mxCell>
                <mxCell id="13" value="MySQL&lt;br&gt;Repository" style="rounded=0;whiteSpace=wrap;html=1;fillColor=default;fontSize=18;" parent="1" vertex="1">
                    <mxGeometry x="1370" y="390" width="120" height="60" as="geometry"/>
                </mxCell>
                <mxCell id="15" value="" style="endArrow=classic;html=1;entryX=0.75;entryY=1;entryDx=0;entryDy=0;exitX=0;exitY=0;exitDx=0;exitDy=0;fontSize=18;" parent="1" source="5" target="4" edge="1">
                    <mxGeometry width="50" height="50" relative="1" as="geometry">
                        <mxPoint x="380" y="390" as="sourcePoint"/>
                        <mxPoint x="430" y="340" as="targetPoint"/>
                    </mxGeometry>
                </mxCell>
                <mxCell id="16" value="" style="endArrow=classic;html=1;entryX=0.75;entryY=0;entryDx=0;entryDy=0;exitX=0;exitY=1;exitDx=0;exitDy=0;fontSize=18;" parent="1" source="5" target="6" edge="1">
                    <mxGeometry width="50" height="50" relative="1" as="geometry">
                        <mxPoint x="400" y="90" as="sourcePoint"/>
                        <mxPoint x="280" y="290" as="targetPoint"/>
                    </mxGeometry>
                </mxCell>
                <mxCell id="17" value="" style="endArrow=classic;html=1;entryX=0;entryY=0.5;entryDx=0;entryDy=0;exitX=1;exitY=0.5;exitDx=0;exitDy=0;fontSize=18;" parent="1" source="5" target="9" edge="1">
                    <mxGeometry width="50" height="50" relative="1" as="geometry">
                        <mxPoint x="310" y="370" as="sourcePoint"/>
                        <mxPoint x="290" y="410" as="targetPoint"/>
                    </mxGeometry>
                </mxCell>
                <mxCell id="18" value="" style="endArrow=classic;html=1;entryX=0.5;entryY=0;entryDx=0;entryDy=0;exitX=0.5;exitY=1;exitDx=0;exitDy=0;fontSize=18;" parent="1" source="9" target="10" edge="1">
                    <mxGeometry width="50" height="50" relative="1" as="geometry">
                        <mxPoint x="430" y="340" as="sourcePoint"/>
                        <mxPoint x="617" y="340" as="targetPoint"/>
                    </mxGeometry>
                </mxCell>
                <mxCell id="19" value="" style="endArrow=classic;html=1;exitX=1;exitY=1;exitDx=0;exitDy=0;entryX=0;entryY=0;entryDx=0;entryDy=0;fontSize=18;" parent="1" source="5" target="10" edge="1">
                    <mxGeometry width="50" height="50" relative="1" as="geometry">
                        <mxPoint x="430" y="340" as="sourcePoint"/>
                        <mxPoint x="550" y="580" as="targetPoint"/>
                    </mxGeometry>
                </mxCell>
                <mxCell id="20" value="" style="endArrow=classic;html=1;exitX=1;exitY=0.5;exitDx=0;exitDy=0;fontSize=18;entryX=0;entryY=0.5;entryDx=0;entryDy=0;" parent="1" source="9" target="30" edge="1">
                    <mxGeometry width="50" height="50" relative="1" as="geometry">
                        <mxPoint x="610" y="210" as="sourcePoint"/>
                        <mxPoint x="820" y="210" as="targetPoint"/>
                    </mxGeometry>
                </mxCell>
                <mxCell id="21" value="" style="rounded=0;whiteSpace=wrap;html=1;fontSize=18;fillColor=none;" parent="1" vertex="1">
                    <mxGeometry x="150" y="122" width="49" height="18" as="geometry"/>
                </mxCell>
                <mxCell id="22" value="" style="rounded=0;whiteSpace=wrap;html=1;fontSize=18;fillColor=none;" parent="1" vertex="1">
                    <mxGeometry x="507" y="122" width="49" height="18" as="geometry"/>
                </mxCell>
                <mxCell id="23" value="" style="rounded=0;whiteSpace=wrap;html=1;fontSize=18;fillColor=none;" parent="1" vertex="1">
                    <mxGeometry x="1214" y="125" width="49" height="18" as="geometry"/>
                </mxCell>
                <mxCell id="24" value="Model" style="rounded=0;whiteSpace=wrap;html=1;fontSize=18;" parent="1" vertex="1">
                    <mxGeometry x="979" y="200" width="120" height="60" as="geometry"/>
                </mxCell>
                <mxCell id="25" value="" style="rounded=0;whiteSpace=wrap;html=1;fontSize=18;fillColor=none;" parent="1" vertex="1">
                    <mxGeometry x="861" y="122" width="49" height="18" as="geometry"/>
                </mxCell>
                <mxCell id="26" value="" style="endArrow=classic;html=1;exitX=1;exitY=0.25;exitDx=0;exitDy=0;fontSize=18;entryX=0;entryY=0.5;entryDx=0;entryDy=0;" parent="1" source="9" target="24" edge="1">
                    <mxGeometry width="50" height="50" relative="1" as="geometry">
                        <mxPoint x="760" y="340" as="sourcePoint"/>
                        <mxPoint x="1392" y="348.2196531791908" as="targetPoint"/>
                    </mxGeometry>
                </mxCell>
                <mxCell id="27" style="edgeStyle=none;html=1;exitX=0.5;exitY=0;exitDx=0;exitDy=0;entryX=0.5;entryY=1;entryDx=0;entryDy=0;" parent="1" target="24" edge="1">
                    <mxGeometry relative="1" as="geometry"/>
                </mxCell>
                <mxCell id="32" style="edgeStyle=none;html=1;exitX=0.5;exitY=0;exitDx=0;exitDy=0;entryX=0.5;entryY=1;entryDx=0;entryDy=0;" parent="1" source="30" target="24" edge="1">
                    <mxGeometry relative="1" as="geometry"/>
                </mxCell>
                <mxCell id="30" value="&amp;lt;&amp;lt;interface&amp;gt;&amp;gt;&lt;br&gt;Repository" style="rounded=0;whiteSpace=wrap;html=1;fontSize=18;" parent="1" vertex="1">
                    <mxGeometry x="979" y="390" width="120" height="60" as="geometry"/>
                </mxCell>
            </root>
        </mxGraphModel>
    </diagram>
</mxfile>